<svg width="81" height="80" viewBox="0 0 81 80" fill="none" xmlns="http://www.w3.org/2000/svg">
<g opacity="0.75">
<path d="M71.6727 44.4906H59.2039C59.4891 44.0051 59.6191 43.4441 59.5763 42.8828C59.5199 42.114 59.448 41.3797 59.365 40.6625H67.7626C67.9431 40.6625 68.1162 40.5909 68.2439 40.4634C68.3715 40.3359 68.4432 40.1631 68.4432 39.9828V6.07654C68.4432 5.89627 68.3715 5.72339 68.2439 5.59593C68.1162 5.46846 67.9431 5.39685 67.7626 5.39685H12.3483C12.1678 5.39685 11.9947 5.46846 11.8671 5.59593C11.7394 5.72339 11.6677 5.89627 11.6677 6.07654V39.9828C11.6677 40.1631 11.7394 40.3359 11.8671 40.4634C11.9947 40.5909 12.1678 40.6625 12.3483 40.6625H40.5577C40.4185 41.8906 40.3262 43.1797 40.3011 44.4906H8.43824C7.83014 44.4914 7.24719 44.733 6.81719 45.1624C6.3872 45.5918 6.14527 46.174 6.14444 46.7812V64.6968C6.14527 65.304 6.38725 65.8859 6.81729 66.3151C7.24733 66.7442 7.83029 66.9855 8.43824 66.9859H12.5283C12.0041 68.6937 11.5785 70.9375 11.3579 73.8797C11.3449 74.0589 11.4035 74.236 11.5207 74.3724C11.6379 74.5088 11.8044 74.5934 11.9838 74.6078H12.0354C12.2063 74.6075 12.3708 74.5431 12.4963 74.4274C12.6219 74.3116 12.6992 74.1529 12.7129 73.9828C12.9648 70.589 13.4796 68.2312 14.0773 66.5875C14.0827 66.5742 14.0874 66.5606 14.0914 66.5468C15.2398 63.414 16.6809 62.9203 17.1409 62.8531C18.3405 63.2177 19.6215 63.2177 20.821 62.8531C21.2654 62.9218 22.7268 63.4 23.8862 66.5687C24.487 68.2109 25.0049 70.5718 25.2584 73.9765C25.2718 74.1468 25.349 74.3057 25.4746 74.4215C25.6002 74.5374 25.7649 74.6017 25.9359 74.6015H25.9875C26.167 74.5872 26.3334 74.5026 26.4506 74.3662C26.5679 74.2298 26.6264 74.0527 26.6134 73.8734C26.3944 70.9234 25.9672 68.6875 25.443 66.9797H33.5793C33.0567 68.6875 32.6296 70.9234 32.4105 73.8734C32.3971 74.0528 32.4555 74.2301 32.5728 74.3666C32.6901 74.5031 32.8568 74.5876 33.0364 74.6015H33.0864C33.2576 74.6017 33.4225 74.5375 33.5484 74.4216C33.6742 74.3058 33.7517 74.1469 33.7655 73.9765C34.0174 70.5797 34.5338 68.2203 35.1315 66.5765C35.1353 66.5679 35.1384 66.5591 35.1408 66.55C36.2909 63.4125 37.7351 62.914 38.1935 62.8468C39.3925 63.2114 40.673 63.2114 41.872 62.8468C42.318 62.914 43.7794 63.3922 44.9388 66.5625C45.5381 68.2047 46.0575 70.5656 46.3094 73.9703C46.3232 74.1406 46.4007 74.2996 46.5266 74.4154C46.6524 74.5312 46.8174 74.5954 46.9885 74.5953H47.0386C47.2181 74.5813 47.3848 74.4968 47.5022 74.3604C47.6195 74.2239 47.6778 74.0465 47.6644 73.8672C47.4454 70.9172 47.0182 68.6812 46.4941 66.9734H54.6303C54.1062 68.6812 53.679 70.9172 53.46 73.8672C53.447 74.0464 53.5055 74.2235 53.6227 74.3599C53.74 74.4963 53.9064 74.5809 54.0858 74.5953H54.1375C54.3085 74.5954 54.4732 74.5311 54.5988 74.4153C54.7244 74.2994 54.8016 74.1405 54.815 73.9703C55.0669 70.5812 55.5801 68.225 56.1747 66.5828C56.1841 66.5609 56.1888 66.539 56.1966 66.5172C57.3435 63.3922 58.7814 62.9062 59.2414 62.8406C60.4415 63.2052 61.723 63.2052 62.9231 62.8406C63.3674 62.9078 64.8288 63.3859 65.9867 66.5531V66.5625C66.586 68.2031 67.1039 70.564 67.3573 73.9672C67.3711 74.1372 67.4484 74.2959 67.5739 74.4117C67.6994 74.5275 67.864 74.5919 68.0348 74.5922H68.0865C68.2659 74.5778 68.4323 74.4932 68.5496 74.3568C68.6668 74.2204 68.7253 74.0433 68.7123 73.864C68.4933 70.914 68.0661 68.6781 67.542 66.9703H71.632C72.24 66.9699 72.8229 66.7286 73.253 66.2995C73.683 65.8703 73.925 65.2883 73.9258 64.6812V46.7812C73.9251 46.1809 73.6888 45.6048 73.2675 45.1766C72.8463 44.7483 72.2737 44.502 71.6727 44.4906ZM13.029 39.3031V6.74998H67.082V39.3031H59.1913C58.409 33.8156 56.8193 30.0156 54.4629 27.9843C55.4209 27.0171 56.094 25.8054 56.4085 24.4818C56.7231 23.1582 56.6669 21.7737 56.2463 20.4798C55.8257 19.1859 55.0567 18.0325 54.0236 17.1457C52.9905 16.259 51.733 15.6732 50.3888 15.4523C49.0446 15.2315 47.6655 15.3841 46.4024 15.8936C45.1392 16.403 44.0408 17.2496 43.2272 18.3407C42.4136 19.4318 41.9162 20.7254 41.7895 22.0799C41.6628 23.4344 41.9117 24.7976 42.5089 26.0203L34.9687 21.7906C34.2552 21.4285 33.4292 21.3557 32.6632 21.5874C31.8973 21.8192 31.2506 22.3375 30.8583 23.0342C30.4661 23.7309 30.3586 24.552 30.5583 25.326C30.7581 26.0999 31.2496 26.7669 31.9302 27.1875L42.2272 32.9687C41.7078 34.3437 41.1226 36.6156 40.7314 39.3031H13.029ZM43.1191 22.7922C43.1191 21.5956 43.4744 20.4259 44.1401 19.431C44.8058 18.436 45.752 17.6606 46.859 17.2027C47.9661 16.7448 49.1842 16.625 50.3594 16.8584C51.5346 17.0919 52.6141 17.6681 53.4614 18.5142C54.3087 19.3603 54.8857 20.4383 55.1195 21.6119C55.3532 22.7854 55.2332 24.0019 54.7747 25.1074C54.3162 26.2129 53.5396 27.1578 52.5433 27.8226C51.547 28.4873 50.3757 28.8422 49.1775 28.8422C47.5712 28.8405 46.0312 28.2026 44.8954 27.0683C43.7596 25.9341 43.1207 24.3962 43.1191 22.7922ZM43.7027 32.9484C43.7137 32.9148 43.7215 32.8803 43.7262 32.8453C43.7412 32.8028 43.7517 32.7588 43.7575 32.714C43.7586 32.6711 43.7549 32.6281 43.7465 32.5859C43.7439 32.5425 43.7366 32.4996 43.7246 32.4578C43.7094 32.4173 43.69 32.3786 43.6667 32.3422C43.6479 32.3036 43.6254 32.267 43.5994 32.2328C43.5676 32.2003 43.533 32.1705 43.4962 32.1437C43.471 32.1192 43.4444 32.0962 43.4164 32.075L32.5967 26.0078C32.1942 25.7821 31.8979 25.4061 31.773 24.9623C31.7112 24.7425 31.6933 24.5128 31.7204 24.2861C31.7475 24.0595 31.8191 23.8404 31.9309 23.6414C32.0428 23.4423 32.1929 23.2673 32.3725 23.1261C32.5521 22.985 32.7578 22.8806 32.9779 22.8189C33.4223 22.6942 33.8981 22.7509 34.3006 22.9765L45.8244 29.439C45.9062 29.4836 45.9961 29.5113 46.0888 29.5203C47.2586 30.0616 48.5503 30.2866 49.8346 30.1728C51.1189 30.059 52.3507 29.6104 53.4068 28.8718L53.4772 28.925C56.0917 31.0906 57.6877 35.8203 58.2197 42.9875C58.2466 43.3369 58.1435 43.6839 57.9302 43.9621C57.7168 44.2403 57.4082 44.4302 57.0634 44.4953H56.4845C56.1803 44.4312 55.9051 44.2703 55.7002 44.0368C55.4954 43.8032 55.372 43.5096 55.3485 43.2C55.1529 40.5562 54.8009 38.2562 54.3033 36.364C54.2806 36.2777 54.2411 36.1966 54.187 36.1254C54.1329 36.0543 54.0654 35.9945 53.9881 35.9495C53.9109 35.9044 53.8256 35.875 53.737 35.8629C53.6483 35.8508 53.5582 35.8562 53.4717 35.8789C53.3852 35.9016 53.304 35.941 53.2328 35.995C53.1616 36.049 53.1017 36.1165 53.0566 36.1936C53.0114 36.2708 52.982 36.356 52.9699 36.4445C52.9577 36.533 52.9632 36.623 52.9859 36.7093C53.4631 38.5218 53.8011 40.739 53.992 43.3C54.0251 43.7229 54.1569 44.1323 54.3769 44.4953H41.6624C41.7641 39.4687 42.9141 34.6875 43.7027 32.9484ZM17.7073 61.5937C17.6227 61.5379 17.5263 61.5021 17.4257 61.489H17.3459C16.2227 61.1011 15.2735 60.3281 14.667 59.3075C14.0604 58.2869 13.8356 57.0846 14.0326 55.9142C14.2296 54.7438 14.8355 53.6809 15.7429 52.9144C16.6503 52.1479 17.8003 51.7273 18.9888 51.7273C20.1773 51.7273 21.3273 52.1479 22.2347 52.9144C23.142 53.6809 23.748 54.7438 23.945 55.9142C24.142 57.0846 23.9172 58.2869 23.3106 59.3075C22.704 60.3281 21.7549 61.1011 20.6317 61.489H20.5519C20.4525 61.5023 20.3574 61.5375 20.2734 61.5922C19.433 61.8225 18.5461 61.8225 17.7058 61.5922L17.7073 61.5937ZM38.774 61.5937C38.6892 61.5381 38.5929 61.5023 38.4924 61.489H38.411C37.2882 61.1011 36.3395 60.3283 35.7332 59.308C35.1269 58.2877 34.9023 57.0858 35.0993 55.9158C35.2963 54.7458 35.9021 53.6834 36.8091 52.9172C37.7162 52.1509 38.8658 51.7305 40.0539 51.7305C41.242 51.7305 42.3916 52.1509 43.2987 52.9172C44.2057 53.6834 44.8115 54.7458 45.0085 55.9158C45.2055 57.0858 44.9809 58.2877 44.3746 59.308C43.7683 60.3283 42.8196 61.1011 41.6968 61.489H41.6154C41.5166 61.5025 41.422 61.5377 41.3385 61.5922C40.4982 61.8225 39.6112 61.8225 38.7709 61.5922L38.774 61.5937ZM59.8391 61.5937C59.7544 61.5379 59.6581 61.5021 59.5575 61.489H59.4777C58.3545 61.1011 57.4053 60.3281 56.7987 59.3075C56.1922 58.2869 55.9674 57.0846 56.1644 55.9142C56.3614 54.7438 56.9673 53.6809 57.8747 52.9144C58.7821 52.1479 59.9321 51.7273 61.1206 51.7273C62.3091 51.7273 63.4591 52.1479 64.3665 52.9144C65.2738 53.6809 65.8798 54.7438 66.0768 55.9142C66.2738 57.0846 66.049 58.2869 65.4424 59.3075C64.8358 60.3281 63.8867 61.1011 62.7635 61.489H62.6837C62.5843 61.5023 62.4892 61.5375 62.4052 61.5922C61.9859 61.7058 61.5535 61.7641 61.119 61.7656C60.6868 61.7635 60.2566 61.7058 59.8391 61.5937ZM72.6005 64.6968C72.5985 64.9441 72.4987 65.1806 72.3228 65.3547C72.147 65.5288 71.9094 65.6265 71.6617 65.6265H67.0929C66.4029 63.9265 65.6159 62.9281 64.9196 62.3453C64.8022 62.2484 64.6865 62.1687 64.5738 62.0906C65.7324 61.3439 66.6179 60.2428 67.0979 58.9519C67.5779 57.661 67.6267 56.2497 67.2369 54.9288C66.8472 53.6079 66.0398 52.4485 64.9355 51.6238C63.8312 50.7991 62.4893 50.3535 61.1104 50.3535C59.7315 50.3535 58.3896 50.7991 57.2853 51.6238C56.181 52.4485 55.3737 53.6079 54.9839 54.9288C54.5941 56.2497 54.6429 57.661 55.1229 58.9519C55.6029 60.2428 56.4884 61.3439 57.647 62.0906C57.5344 62.1687 57.4186 62.2468 57.3012 62.3453C56.605 62.9218 55.8179 63.9203 55.1279 65.6265H46.0388C45.3487 63.9265 44.5617 62.9281 43.8639 62.3453C43.7465 62.2484 43.6323 62.1687 43.5196 62.0906C44.6776 61.3438 45.5624 60.2429 46.042 58.9524C46.5215 57.6618 46.57 56.251 46.1802 54.9307C45.7904 53.6104 44.9832 52.4515 43.8793 51.6272C42.7753 50.8029 41.4339 50.3574 40.0555 50.3574C38.677 50.3574 37.3356 50.8029 36.2317 51.6272C35.1277 52.4515 34.3205 53.6104 33.9307 54.9307C33.5409 56.251 33.5894 57.6618 34.0689 58.9524C34.5485 60.2429 35.4334 61.3438 36.5913 62.0906C36.4786 62.1687 36.3644 62.2468 36.2471 62.3453C35.5492 62.9218 34.7622 63.9203 34.0722 65.6265H24.9721C24.2821 63.9265 23.495 62.9281 22.7988 62.3453C22.6814 62.2484 22.5656 62.1687 22.453 62.0906C23.6116 61.3439 24.497 60.2428 24.9771 58.9519C25.4571 57.661 25.5059 56.2497 25.1161 54.9288C24.7263 53.6079 23.919 52.4485 22.8147 51.6238C21.7104 50.7991 20.3685 50.3535 18.9896 50.3535C17.6106 50.3535 16.2688 50.7991 15.1645 51.6238C14.0602 52.4485 13.2528 53.6079 12.8631 54.9288C12.4733 56.2497 12.5221 57.661 13.0021 58.9519C13.4821 60.2428 14.3676 61.3439 15.5262 62.0906C15.412 62.1687 15.2977 62.2468 15.1804 62.3453C14.4841 62.9218 13.6971 63.9203 13.0071 65.6265H8.43824C8.19061 65.6265 7.953 65.5288 7.77716 65.3547C7.60132 65.1806 7.50151 64.9441 7.49944 64.6968V46.7812C7.49944 46.5326 7.59835 46.2941 7.77441 46.1183C7.95047 45.9425 8.18926 45.8437 8.43824 45.8437H40.8018C40.8555 45.8664 40.9133 45.878 40.9716 45.878C41.0299 45.878 41.0876 45.8664 41.1413 45.8437H56.4282C56.5451 45.863 56.6633 45.8745 56.7818 45.8781C56.8537 45.8781 56.9257 45.8781 56.9914 45.8703C57.0571 45.8625 57.0931 45.8515 57.1479 45.8437H71.6743C71.9232 45.8437 72.162 45.9425 72.3381 46.1183C72.5142 46.2941 72.6131 46.5326 72.6131 46.7812L72.6005 64.6968Z" fill="#1E6499"/>
</g>
</svg>
